<svg xmlns="http://www.w3.org/2000/svg" fill='white' width='24' height='24' viewBox="0 0 100 125" x="0px" y="0px"><path d="M86.43,35.07A3.5,3.5,0,0,0,81,39.53l5.77,7H53.5V14.14l7,5.77a3.5,3.5,0,1,0,4.46-5.39L52.23,4a3.5,3.5,0,0,0-4.46,0L35.07,14.51a3.5,3.5,0,1,0,4.46,5.39l7-5.77V46.5H13.19l5.77-7a3.5,3.5,0,0,0-5.39-4.46L3.06,47.77a3.5,3.5,0,0,0,0,4.46l10.51,12.7A3.5,3.5,0,0,0,19,60.47l-5.77-7H46.5V85.86l-7-5.77a3.5,3.5,0,1,0-4.46,5.39L47.77,96a3.5,3.5,0,0,0,4.46,0l12.7-10.51a3.5,3.5,0,1,0-4.46-5.39l-7,5.77V53.5H86.81l-5.77,7a3.5,3.5,0,0,0,5.39,4.46l10.51-12.7a3.5,3.5,0,0,0,0-4.46Z"/></svg>