<svg xmlns="http://www.w3.org/2000/svg" xmlns:xlink="http://www.w3.org/1999/xlink" version="1.1" x="0px" y="0px" viewBox="0 0 69 80" style="enable-background:new 0 0 69 69;" xml:space="preserve" fill='white'><g><path d="M23.92383,66.49902h37.68555c1.48633,0,2.69629-1.20996,2.69629-2.69629V14.60645   c0-1.48633-1.20996-2.69629-2.69629-2.69629H47.77734V5.19824c0-1.4873-1.20996-2.69727-2.69629-2.69727h-27.0957   c-0.21431,0-0.52339,0.10822-0.70605,0.29102C16.0178,4.05249,21.83231-1.7574,4.9873,15.07422   c-0.04329,0.10001-0.29297,0.2936-0.29297,0.70703v38.61426c0,1.4873,1.20996,2.69727,2.69727,2.69727h13.83594v6.70996   C21.22754,65.28906,22.4375,66.49902,23.92383,66.49902z M62.30566,14.60645v49.19629c0,0.38379-0.3125,0.69629-0.69629,0.69629   H23.92383c-0.38379,0-0.69629-0.3125-0.69629-0.69629V48.89063h5.83105l-1.43652,1.43652   c-0.39063,0.39063-0.39063,1.02344,0,1.41406c0.39061,0.39061,1.02343,0.39064,1.41406,0l3.14233-3.14227   c0.39162-0.39034,0.38849-1.02941,0-1.41663l-3.14233-3.14227c-0.39063-0.39063-1.02344-0.39063-1.41406,0   s-0.39063,1.02344,0,1.41406l1.43652,1.43652h-5.83105v-8.92676h8.24512c0.55273,0,1-0.44727,1-1s-0.44727-1-1-1h-8.24512v-9.77441   h11.28809c0.55273,0,1-0.44727,1-1v-11.2793h26.09375C61.99316,13.91016,62.30566,14.22266,62.30566,14.60645z M33.51563,15.32324   v8.86621h-8.87305C27.74611,21.08831,30.3969,18.43956,33.51563,15.32324z M16.98633,5.91278v8.86554H8.11328   C9.0239,13.86847,4.82666,18.06216,16.98633,5.91278z M7.3916,55.09277c-0.38477,0-0.69727-0.3125-0.69727-0.69727V16.77832   h11.29199c0.55273,0,1-0.44727,1-1V4.50098h26.09473c0.38379,0,0.69629,0.3125,0.69629,0.69727v6.71191H34.51563   c-0.19788,0-0.51624,0.10285-0.70703,0.29297l-12.28809,12.2793c-0.18114,0.18063-0.29297,0.49436-0.29297,0.70703v10.77441   h-5.83203l1.43652-1.43652c0.39063-0.39063,0.39063-1.02344,0-1.41406s-1.02344-0.39063-1.41406,0l-3.14233,3.14227   c-0.38894,0.3874-0.39098,1.02719,0,1.41663l3.14233,3.14227c0.39061,0.39061,1.02343,0.39064,1.41406,0   c0.39063-0.39063,0.39063-1.02344,0-1.41406l-1.43652-1.43652h5.83203v8.92676h-8.24609c-0.55273,0-1,0.44727-1,1s0.44727,1,1,1   h8.24609v6.20215H7.3916z"/></g></svg>