<?xml version="1.0" encoding="utf-8"?>
<svg version="1.1" id="Layer_1" x="0px" y="0px" viewBox="0 0 365.699 300.464" style="enable-background:new 0 0 365.699 300.464;" xmlns="http://www.w3.org/2000/svg">
  <g transform="matrix(1, 0, 0, 1, 0.229712, -49.617912)">
    <g/>
    <g/>
    <g/>
    <g/>
    <g/>
    <g>
      <g>
        <path style="fill:#C77821;" d="M16.053,171.957c4.848,19.303,17.313,67.721,24.825,85.996 c9.474,23.058,5.056,33.166,36.326,36.325c26.902,2.717,82.292,1.462,105.701,0.857c23.41,0.605,78.799,1.86,105.701-0.857 c31.27-3.159,26.85-13.267,36.326-36.325c7.512-18.275,20.964-74.193,25.815-93.497L16.053,171.957z"/>
      </g>
      <g>
        <g>
          <path style="fill:#D88C28;" d="M359.875,154.995c-2.525-9.163-16.845-7.16-23.73-6.823c-2.345,0.112-4.71,0.087-7.057,0.129 c-11.76,0.21-23.517,0.338-35.277,0.5c-13.285,0.182-171.378,3.387-184.512,3.849c-13.034,0.457-26.068,0.923-39.104,1.355 c-11.535,0.38-23.068,0.793-34.603,1.125c-2.305,0.065-4.624,0.201-6.928,0.196c-6.765-0.016-20.897-1.323-22.951,7.777 c-1.085,4.802,1.798,10.433,6.892,11.302c4.411,0.753,9.171-0.132,13.601-0.409c13.182-0.827,26.398-1.058,39.602-1.385 c13.321-0.329,26.639-0.667,39.962-0.96c13.541-0.298,27.077-0.606,40.618-0.894c4.961-0.105,30.33-0.299,36.572-0.448 c11.365-0.269,22.733-0.549,34.101-0.838c13.792-0.349,27.586-0.679,41.38-1.022c13.574-0.331,27.148-0.62,40.723-0.919 c13.452-0.295,26.914-0.687,40.371-0.473c4.523,0.074,9.407,0.747,13.861-0.229 C358.543,165.699,361.204,159.831,359.875,154.995z"/>
          <g>
            <path style="fill:#B15C36;" d="M34.171,173.378c-3.349-0.519-4.203-5.449-4.492-8.16c-0.323-2.971,0.703-5.985,1.834-8.683 c0.069-0.161-0.153-0.287-0.261-0.152c-2.441,3.104-2.919,7.103-2.156,10.909c0.146,0.721,0.38,1.623,0.715,2.535 c-2.759-3.938-3.435-8.833-0.024-13.138c0.184-0.233-0.163-0.478-0.361-0.274c-4.203,4.368-3.204,13.348,2.106,16.642 c0.079,0.052,0.158,0.047,0.232,0.05c0.662,0.63,1.456,1.027,2.405,0.995C34.595,174.088,34.563,173.439,34.171,173.378z"/>
            <path style="fill:#B15C36;" d="M34.688,172.657c-3.596-5.062-3.933-11.093-0.38-16.262c0.174-0.254-0.179-0.526-0.378-0.291 c-1.913,2.266-3.323,5.284-3.182,8.32c0.127,2.696,1.045,7.143,3.533,8.646C34.559,173.24,34.891,172.943,34.688,172.657z"/>
            <path style="fill:#B15C36;" d="M74.581,172.789c-4.165-5.748-5.259-12.342-3.215-19.15c0.093-0.312-0.33-0.502-0.473-0.2 c-2.761,5.882-2.931,15.895,3.103,19.943C74.39,173.647,74.868,173.186,74.581,172.789z"/>
            <path style="fill:#B15C36;" d="M77.89,172.759c-4.169-4.86-4.839-12.848-3.096-18.766c0.057-0.202-0.213-0.323-0.306-0.129 c-1.544,3.262-2.147,6.198-1.573,9.803c0.098,0.614,0.225,1.294,0.375,1.994c-0.304-0.62-0.6-1.247-0.87-1.89 c-1.255-2.993-0.524-6.953,0.452-9.893c0.1-0.304-0.325-0.488-0.461-0.192c-2.544,5.531-2.568,13.624,2.809,17.691 c0.064,0.05,0.136,0.058,0.203,0.066c0.507,0.79,1.1,1.477,1.81,1.979C77.655,173.719,78.248,173.178,77.89,172.759z"/>
            <path style="fill:#B15C36;" d="M127.68,170.823c-1.631-3.017-3.285-5.731-3.741-9.203c-0.361-2.744-0.017-5.218,0.839-7.833 c0.172-0.525,0.806-1.406,0.66-2.062c-0.026-0.128-0.136-0.24-0.28-0.215c-2.07,0.377-2.845,6.645-2.824,8.257 c0.05,4.016,1.241,9.181,4.915,11.389C127.463,171.283,127.828,171.098,127.68,170.823z"/>
            <path style="fill:#B15C36;" d="M131.881,170.685c-3.436-5.353-6.345-12.145-3.863-18.519c0.112-0.285-0.285-0.434-0.425-0.178 c-2.924,5.226-1.92,16.209,3.815,19.318C131.799,171.516,132.074,170.986,131.881,170.685z"/>
            <path style="fill:#B15C36;" d="M186.606,158.287c-0.39-2.594,0.132-5.016,0.038-7.57c-0.014-0.337-0.469-0.326-0.595-0.08 c-2.245,4.335-0.784,12.252,2.211,15.9c0.206,0.251,0.586,0.016,0.478-0.281C187.813,163.642,187.022,161.039,186.606,158.287z "/>
            <path style="fill:#B15C36;" d="M186.445,169.888c-2.623-5.588-4.339-12.795-3.464-18.96c0.055-0.383-0.488-0.435-0.578-0.08 c-0.889,3.464-0.583,6.971,0.026,10.458c0.521,2.968,1.238,6.74,3.206,9.059C185.972,170.765,186.684,170.391,186.445,169.888z "/>
            <path style="fill:#B15C36;" d="M184.705,170.635c-1.463-3.078-2.575-5.785-3.251-9.175c-0.672-3.352-0.175-6.818-0.084-10.203 c0.009-0.387-0.528-0.476-0.605-0.084c-1.188,6.064-2.111,15.499,3.084,20.126C184.27,171.674,184.942,171.128,184.705,170.635 z"/>
            <path style="fill:#B15C36;" d="M220.907,154.976c-0.11-1.37,0.28-4.645-0.662-5.707c-0.11-0.127-0.335-0.086-0.359,0.096 c-0.566,4.57-0.456,10.626,1.717,14.762c0.132,0.256,0.538,0.169,0.5-0.139C221.739,160.986,221.148,158,220.907,154.976z"/>
            <path style="fill:#B15C36;" d="M224.928,158.773c-0.177-3.121,0.198-6.259-0.093-9.359c-0.036-0.375-0.598-0.361-0.653,0 c-0.942,6.181-1.195,13.66,1.296,19.508c0.1,0.235,0.435,0.128,0.418-0.114C225.681,165.451,225.119,162.13,224.928,158.773z"/>
            <path style="fill:#B15C36;" d="M222.54,157.976c-0.251-2.622,0.184-5.282,0.119-7.907c-0.01-0.355-0.533-0.316-0.593-0.002 c-0.992,5.081-1.059,12.149,1.752,16.692c0.11,0.174,0.435,0.044,0.383-0.16C223.439,163.742,222.822,160.925,222.54,157.976z"/>
            <path style="fill:#B15C36;" d="M256.507,158.54c-0.263-3.128,0.689-6.451-0.048-9.521c-0.086-0.355-0.653-0.418-0.689,0 c-0.531,6.075-2.027,14.951,2.245,20.109c0.354,0.428,0.985,0.027,0.813-0.478C257.666,165.252,256.813,162.136,256.507,158.54 z"/>
            <path style="fill:#B15C36;" d="M259.593,159.448c-0.277-3.354,0.356-6.634,0.311-9.97c-0.005-0.422-0.602-0.355-0.688-0.002 c-1.305,5.527-2.907,15.257,1.733,19.76c0.301,0.29,0.908-0.056,0.798-0.465C260.917,165.608,259.865,162.767,259.593,159.448z "/>
            <path style="fill:#B15C36;" d="M308.145,159.546c-0.065-3.518-0.863-9.661-4.019-11.843c-0.194-0.134-0.476,0.056-0.371,0.289 c1.48,3.297,2.051,6.999,2.479,10.562c0.354,2.972-1.092,6.129-0.664,8.917c0.043,0.293,0.39,0.546,0.681,0.39 C308.678,166.552,308.188,161.822,308.145,159.546z"/>
            <path style="fill:#B15C36;" d="M308.346,148.024c-0.304-0.385-0.899-0.02-0.729,0.428c2.228,5.895,3.333,11.886,1.511,18.07 c-0.079,0.271,0.277,0.539,0.461,0.266C313.28,161.318,312.365,153.072,308.346,148.024z"/>
            <path style="fill:#B15C36;" d="M349.781,154.889c-0.232-2.637-0.791-6.322-3.094-8.027c-0.382-0.281-0.806,0.195-0.564,0.568 c3.474,5.307,2.443,12.934,1.661,18.788c-0.091,0.678,0.952,0.999,1.179,0.322C350.233,162.718,350.13,158.848,349.781,154.889 z"/>
            <path style="fill:#B15C36;" d="M345.301,146.959c-0.268-0.342-0.748-0.016-0.624,0.367c0.586,1.814,1.43,3.391,1.845,5.29 c0.43,1.958,0.309,3.98,0.493,5.961c0.062,0.682,1.119,0.675,1.198,0.004C348.691,154.402,347.955,150.306,345.301,146.959z"/>
          </g>
          <g>
            <path style="opacity:0.5;fill:#D88C28;" d="M359.875,154.995c-0.514-1.866-1.537-3.252-2.867-4.301 c-1.126,2.174-3.055,3.893-5.599,4.445c-4.394,0.959-9.214,0.298-13.675,0.227c-13.278-0.212-26.558,0.173-39.831,0.461 c-13.393,0.293-26.785,0.577-40.178,0.904c-13.61,0.336-27.22,0.658-40.826,0.999c-11.217,0.286-22.432,0.557-33.646,0.822 c-6.156,0.146-31.186,0.336-36.085,0.439c-13.354,0.283-26.711,0.585-40.07,0.876c-13.144,0.288-26.288,0.617-39.429,0.941 c-13.027,0.322-26.063,0.546-39.073,1.358c-4.37,0.27-9.063,1.138-13.419,0.399c-2.692-0.455-4.745-2.254-5.922-4.543 c-1.738,1.158-3.024,2.788-3.543,5.08c-1.085,4.802,1.798,10.433,6.892,11.302c4.411,0.753,9.171-0.132,13.601-0.409 c13.182-0.827,26.398-1.058,39.602-1.385c13.321-0.329,26.639-0.667,39.962-0.96c13.541-0.298,27.077-0.606,40.618-0.894 c4.961-0.105,30.33-0.299,36.572-0.448c11.365-0.269,22.733-0.549,34.101-0.838c13.792-0.349,27.586-0.679,41.38-1.022 c13.574-0.331,27.148-0.62,40.723-0.919c13.452-0.295,26.914-0.687,40.371-0.473c4.523,0.074,9.407,0.747,13.861-0.229 C358.543,165.699,361.204,159.831,359.875,154.995z"/>
          </g>
          <g>
            <path style="opacity:0.5;fill:#D88C28;" d="M307.789,163.733c-14.583,0.322-29.161,0.632-43.742,0.99 c-14.82,0.369-29.635,0.723-44.45,1.097c-12.212,0.312-24.421,0.61-36.63,0.9c-6.703,0.161-33.955,0.369-39.283,0.481 c-14.542,0.311-29.085,0.642-43.628,0.961c-14.313,0.314-28.619,0.676-42.929,1.03c-14.181,0.353-28.379,0.599-42.537,1.489 c-2.286,0.144-4.655,0.434-7.022,0.608c1.222,1.585,2.938,2.757,5.037,3.115c4.411,0.753,9.171-0.132,13.601-0.409 c13.182-0.827,26.398-1.058,39.602-1.385c13.321-0.329,26.639-0.667,39.962-0.96c13.541-0.298,27.077-0.606,40.618-0.894 c4.961-0.105,30.33-0.299,36.572-0.448c11.365-0.269,22.733-0.549,34.101-0.838c13.792-0.349,27.586-0.679,41.38-1.022 c13.574-0.331,27.148-0.62,40.723-0.919c13.452-0.295,26.914-0.687,40.371-0.473c4.523,0.074,9.407,0.747,13.861-0.229 c2.08-0.454,3.744-1.691,4.913-3.314c-2.412-0.066-4.829-0.249-7.155-0.287C336.699,162.997,322.241,163.416,307.789,163.733z"/>
          </g>
        </g>
        <g style="opacity:0.5;">
          <path style="fill:#FFFFFF;" d="M16.825,157.153c-1.786-0.317-3.402,0.176-5.121,0.582c-0.667,0.158-0.77,1.183-0.005,1.267 c0.681,0.076,1.336-0.067,2.013-0.091c1.006-0.033,2.118-0.192,3.11-0.369C17.606,158.402,17.611,157.291,16.825,157.153z"/>
          <path style="fill:#FFFFFF;" d="M22.187,156.458c-0.705-0.262-1.432-0.114-2.161-0.025c-0.715,0.084-0.722,1.183-0.002,1.267 c0.731,0.087,1.461,0.237,2.166-0.026C22.715,157.475,22.713,156.656,22.187,156.458z"/>
          <path style="fill:#FFFFFF;" d="M67.791,155.609c-5.35-0.662-10.956-0.116-16.323,0.092c-4.908,0.188-10.041-0.249-14.853,0.826 c-0.249,0.056-0.27,0.416-0.002,0.461c4.487,0.733,9.417,0.368,13.959,0.265c5.664-0.128,11.607,0.28,17.218-0.52 C68.42,156.645,68.435,155.691,67.791,155.609z"/>
          <path style="fill:#FFFFFF;" d="M116.516,154.823c-5.3-1.04-11.511,0.154-16.928,0.215c-6.79,0.076-13.505-0.008-20.268,0.593 c-0.299,0.025-0.304,0.515,0,0.531c6.283,0.351,12.637,0.681,18.934,0.757c5.879,0.07,12.506,0.531,18.262-0.729 C117.271,156.023,117.3,154.977,116.516,154.823z"/>
          <path style="fill:#FFFFFF;" d="M177.973,152.605c-7.191-1.002-14.954,0.104-22.204,0.226 c-7.134,0.122-14.743-0.117-21.762,1.194c-0.328,0.061-0.366,0.605,0,0.615c6.914,0.199,13.682,0.409,20.617,0.194 c7.698-0.24,15.728,0.362,23.347-0.852C178.743,153.861,178.762,152.714,177.973,152.605z"/>
          <path style="fill:#FFFFFF;" d="M213.725,152.324c-3.435-0.392-6.959-0.153-10.416-0.126c-3.576,0.027-7.282,0.643-10.823,0.552 c-0.366-0.01-0.445,0.491-0.079,0.567c3.005,0.63,6.383,0.219,9.438,0.283c3.918,0.081,7.98,0.331,11.879-0.116 C214.383,153.41,214.385,152.399,213.725,152.324z"/>
          <path style="fill:#FFFFFF;" d="M252.602,152.032c-7.461-1.392-15.09,0.219-22.539,0.017c-0.265-0.007-0.32,0.355-0.055,0.411 c3.634,0.763,7.6,0.544,11.301,0.569c3.77,0.025,7.547,0.666,11.293-0.031C253.148,152.896,253.15,152.133,252.602,152.032z"/>
          <path style="fill:#FFFFFF;" d="M295.639,151.36c-11.016-1.218-22.097,0.056-33.139-0.326c-0.724-0.024-0.904,1.053-0.155,1.137 c4.86,0.542,10.249,0.818,15.142,0.519c6.046-0.369,12.113,0.061,18.15-0.58C296.065,152.063,296.065,151.407,295.639,151.36z"/>
          <path style="fill:#FFFFFF;" d="M303.622,151.133c-1.406-0.815-3.043-0.84-4.602-0.529c-0.648,0.127-0.734,1.182-0.002,1.218 c1.439,0.075,2.878,0.613,4.32,0.367C303.792,152.112,304.1,151.41,303.622,151.133z"/>
          <path style="fill:#FFFFFF;" d="M339.606,149.366c-8.293-0.722-16.809-0.355-25.052,0.631c-0.198,0.024-0.201,0.328-0.002,0.352 c8.092,0.911,16.943,0.558,25.052-0.148C340.075,150.159,340.08,149.407,339.606,149.366z"/>
          <path style="fill:#FFFFFF;" d="M354.792,149.928c-1.145-0.734-2.393-0.858-3.732-0.754c-0.545,0.043-0.535,0.895,0,0.955 c1.15,0.133,2.226,0.568,3.383,0.638C354.871,150.793,355.222,150.204,354.792,149.928z"/>
        </g>
      </g>
      <g>
        <g>
          <path style="fill:#B15C36;" d="M37.624,211.862c-1.224-4.136-2.701-8.139-3.33-12.428c-0.586-3.995-0.289-8.041-0.347-12.059 c-0.005-0.466-0.667-0.387-0.763-0.001c-1.965,8.159-0.084,17.473,3.227,25.003C36.761,213.171,37.858,212.658,37.624,211.862z"/>
          <path style="fill:#B15C36;" d="M47.669,214.873c-2.037-3.951-3.844-7.711-4.729-12.112c-0.83-4.117-0.452-8.434-0.713-12.606 c-0.041-0.655-1.097-0.651-1.148-0.004c-0.696,8.886-0.724,18.243,5.429,25.403C46.99,216.111,48.035,215.588,47.669,214.873z"/>
          <path style="fill:#B15C36;" d="M56.034,210.797c-1.267-3.493-2.646-6.78-3.392-10.451c-0.815-4.008-0.509-8.075-0.607-12.134 c-0.017-0.651-1.076-0.637-1.136-0.001c-0.751,7.898-0.631,16.434,4.062,23.216C55.382,212.038,56.268,211.441,56.034,210.797z"/>
          <path style="fill:#B15C36;" d="M56.751,270.69c-3.125-6.605-3.849-12.956-5.066-20.02c-0.067-0.398-0.641-0.316-0.615,0.081 c0.44,7.212,1.097,14.03,4.88,20.409C56.223,271.621,56.976,271.164,56.751,270.69z"/>
          <path style="fill:#B15C36;" d="M65.597,268.814c-1.592-4.142-3.314-8.103-4.129-12.495c-0.557-3.003-0.485-6.651-1.872-9.425 c-0.217-0.435-0.954-0.288-0.863,0.236c0.636,3.517,0.861,7.135,1.47,10.668c0.693,4.038,2.386,7.882,4.27,11.491 C64.834,269.979,65.881,269.555,65.597,268.814z"/>
          <path style="fill:#B15C36;" d="M75.236,270.963c-3.206-6.951-4.325-14.601-5.152-22.156c-0.074-0.699-1.226-0.727-1.255-0.003 c-0.304,7.408,1.279,16.291,4.994,22.758C74.301,272.396,75.662,271.886,75.236,270.963z"/>
          <path style="fill:#B15C36;" d="M81.248,243.042c-2.094-3.825-3.72-7.299-4.635-11.608c-0.966-4.565-1.277-9.19-1.776-13.816 c-0.055-0.49-0.83-0.498-0.873-0.001c-0.751,8.739,1.052,18.848,6.158,26.086C80.548,244.308,81.61,243.703,81.248,243.042z"/>
          <path style="fill:#B15C36;" d="M88.516,244.405c-1.501-4.386-3.139-8.667-4.035-13.235c-0.82-4.185-1.061-8.454-1.795-12.648 c-0.108-0.619-1.038-0.498-0.966,0.129c1.059,9.215,1.501,17.716,5.876,26.144C87.892,245.366,88.727,245.018,88.516,244.405z"/>
          <path style="fill:#B15C36;" d="M97.321,239.684c-1.544-5.427-3.407-10.86-4.153-16.471c-0.065-0.475-0.837-0.501-0.861-0.004 c-0.268,5.576,1.549,11.921,3.911,16.941C96.556,240.864,97.527,240.409,97.321,239.684z"/>
          <path style="fill:#B15C36;" d="M98.002,218.769c-0.894-3.433-2.156-6.707-2.663-10.241c-0.603-4.199-1.03-8.432-1.561-12.641 c-0.086-0.678-1.088-0.533-1.04,0.136c0.581,7.938,0.605,15.765,4.143,23.052C97.156,219.639,98.175,219.439,98.002,218.769z"/>
          <path style="fill:#B15C36;" d="M108.603,218.964c-1.8-4.056-3.388-7.944-4.339-12.31c-0.749-3.433-0.854-7.002-2.068-10.326 c-0.148-0.408-0.815-0.225-0.734,0.2c1.504,7.91,1.217,16.206,5.941,23.142C107.857,220.332,108.918,219.683,108.603,218.964z"/>
          <path style="fill:#B15C36;" d="M113.169,196.232c-0.091-0.318-0.629-0.169-0.56,0.151c1.475,6.898,1.948,14.005,4.217,20.724 c0.194,0.575,1.136,0.312,1.028-0.28C116.583,209.943,115.101,202.957,113.169,196.232z"/>
          <path style="fill:#B15C36;" d="M154.905,234.118c0.05-0.504-0.672-0.596-0.775-0.106c-1.391,6.712-1.035,14.021,0.801,20.611 c0.206,0.739,1.468,0.391,1.305-0.359C154.81,247.641,154.245,240.879,154.905,234.118z"/>
          <path style="fill:#B15C36;" d="M161.946,235.016c0-0.756-1.291-0.753-1.329-0.004c-0.394,7.759-0.084,15.946,2.434,23.357 c0.229,0.676,1.284,0.356,1.188-0.325C163.184,250.318,161.955,242.849,161.946,235.016z"/>
          <path style="fill:#B15C36;" d="M178.035,255.389c-2.754-7.468-3.923-14.932-4.633-22.829c-0.065-0.718-1.102-0.544-1.088,0.146 c0.165,7.838,0.724,16.16,4.473,23.213C177.193,256.682,178.341,256.219,178.035,255.389z"/>
          <path style="fill:#B15C36;" d="M183.603,208.917c-0.01-0.385-0.665-0.385-0.679-0.001c-0.263,8.932-0.521,17.448,1.351,26.263 c0.148,0.692,1.183,0.573,1.1-0.146C184.344,226.249,183.773,217.76,183.603,208.917z"/>
          <path style="fill:#B15C36;" d="M193.613,206.686c0.112-0.612-0.777-0.696-0.93-0.129c-2.173,8.083-2.152,17.352-0.332,25.498 c0.153,0.69,1.095,0.556,1.076-0.142C193.175,223.421,192.056,215.153,193.613,206.686z"/>
          <path style="fill:#B15C36;" d="M203.216,218.335c-0.32-4.634-0.034-9.343-0.072-13.993c-0.005-0.582-0.925-0.549-1.004,0 c-1.387,9.744-1.217,20.03,2.68,29.178c0.261,0.618,1.274,0.366,1.15-0.314C205.078,228.183,203.572,223.467,203.216,218.335z"/>
          <path style="fill:#B15C36;" d="M247.393,237.191c0.411-4.743,1.597-9.414,2.266-14.12c0.084-0.594-0.772-0.687-0.906-0.125 c-2.312,9.829-4.772,19.379-2.278,29.432c0.239,0.961,1.69,0.821,1.561-0.208C247.391,247.109,246.951,242.3,247.393,237.191z"/>
          <path style="fill:#B15C36;" d="M257.047,227.507c0.077-0.72-0.985-0.861-1.112-0.151c-1.564,8.841-2.821,17.771-1.09,26.689 c0.151,0.777,1.248,0.62,1.207-0.161C255.617,244.931,256.095,236.4,257.047,227.507z"/>
          <path style="fill:#B15C36;" d="M268.964,235.929c0.141-4.139,0.885-8.316,0.559-12.454c-0.043-0.554-0.842-0.418-0.834,0.11 c0.05,4.503-1.159,9.09-1.456,13.603c-0.294,4.485-0.242,9.057,0.595,13.479c0.153,0.814,1.281,0.639,1.255-0.167 C268.924,245.631,268.794,240.799,268.964,235.929z"/>
          <path style="fill:#B15C36;" d="M309.099,224.693c-2.969,8.361-4.198,17.763-3.538,26.605c0.041,0.548,0.925,0.55,0.966,0.003 c0.335-4.439,0.27-8.869,0.846-13.293c0.566-4.361,2.178-8.756,2.403-13.13C309.797,224.499,309.242,224.293,309.099,224.693z"/>
          <path style="fill:#B15C36;" d="M317.751,226.059c-1.501,9.547-4.016,18.884-2.962,28.653c0.091,0.833,1.482,0.868,1.501,0.005 c0.098-5.071,0.234-10.091,0.808-15.134c0.504-4.463,1.587-8.887,1.693-13.382C318.805,225.54,317.861,225.376,317.751,226.059z "/>
          <path style="fill:#B15C36;" d="M273.385,267.482c0.148-3.153,0.636-6.292,0.712-9.443c0.01-0.349-0.43-0.49-0.595-0.164 c-1.37,2.745-1.178,6.444-1.382,9.432c-0.253,3.805,0.148,7.328,0.966,11.055c0.158,0.72,1.257,0.596,1.147-0.152 C273.7,274.593,273.21,271.154,273.385,267.482z"/>
          <path style="fill:#B15C36;" d="M282.761,258.829c0.098-0.447-0.571-0.592-0.748-0.203c-2.697,5.917-2.044,14.339-0.28,20.398 c0.177,0.604,1.179,0.318,1.061-0.291C281.551,272.313,281.343,265.265,282.761,258.829z"/>
          <path style="fill:#B15C36;" d="M292.831,259.106c-0.065-0.484-0.868-0.513-0.882,0c-0.189,6.344-1.188,12.617,0.402,18.882 c0.213,0.846,1.485,0.728,1.377-0.184C293,271.593,293.634,265.271,292.831,259.106z"/>
          <path style="fill:#B15C36;" d="M280.432,206.218c0.272-3.911,1.241-7.665,1.865-11.52c0.067-0.41-0.535-0.476-0.629-0.086 c-1.972,8.407-3.94,16.4-1.143,24.931c0.163,0.488,0.944,0.259,0.863-0.237C280.667,214.951,280.124,210.643,280.432,206.218z"/>
          <path style="fill:#B15C36;" d="M292.015,206.383c0.136-3.549,0.713-7.068,0.708-10.619c0-0.531-0.894-0.524-0.93-0.001 c-0.605,8.519-2.68,16.699-0.153,25.169c0.222,0.74,1.377,0.379,1.284-0.351C292.293,215.807,291.826,211.214,292.015,206.383z"/>
          <path style="fill:#B15C36;" d="M304.502,196.161c0.017-0.688-1.04-0.855-1.076-0.149c-0.433,8.378-3.043,16.674-1.475,25.124 c0.139,0.745,1.215,0.598,1.162-0.156C302.517,212.533,304.296,204.515,304.502,196.161z"/>
        </g>
        <path style="fill:#B15C36;" d="M109.937,175.783c-7.134,1.562-14.196,2.313-21.518,1.861c-0.359-0.021-0.433,0.485-0.074,0.556 c7.019,1.383,15.233,1.666,21.944-1.137C110.972,176.78,110.69,175.617,109.937,175.783z"/>
        <path style="fill:#B15C36;" d="M113.143,183.222c-7.696,1.535-16.73,4.094-24.602,2.056c-0.313-0.083-0.409,0.395-0.141,0.524 c3.196,1.531,7.244,1.34,10.72,1.321c4.808-0.025,9.912-0.853,14.342-2.735C114.084,184.124,113.831,183.087,113.143,183.222z"/>
        <path style="fill:#B15C36;" d="M87.309,195.215c-6.928,1.335-13.271,1.63-20.29,0.393c-0.301-0.054-0.442,0.43-0.143,0.523 c6.527,2.052,14.363,3.404,20.785,0.365C88.32,196.184,88.081,195.065,87.309,195.215z"/>
        <path style="fill:#B15C36;" d="M88.648,205.313c-6.689,0.871-13.79,1.338-20.517,0.583c-0.344-0.04-0.516,0.491-0.163,0.607 c6.137,1.995,14.875,2.107,21.088,0.301C89.922,206.555,89.496,205.203,88.648,205.313z"/>
        <path style="fill:#B15C36;" d="M87.938,214.243c-6.591,0.361-12.625,0.901-19.19-0.482c-0.363-0.077-0.505,0.485-0.17,0.618 c5.838,2.307,13.675,3.175,19.661,0.973C88.889,215.115,88.559,214.211,87.938,214.243z"/>
        <path style="fill:#B15C36;" d="M123.458,221.097c-8.272,1.919-16.125,3.191-24.66,2.926c-0.808-0.026-1.006,1.204-0.174,1.268 c8.418,0.656,17.287,0.397,25.219-2.783C124.601,222.203,124.281,220.907,123.458,221.097z"/>
        <path style="fill:#B15C36;" d="M121.237,232.622c-7.282,0.907-14.741,2.243-22.083,0.961c-0.605-0.104-0.884,0.862-0.287,1.052 c6.754,2.132,16.142,1.834,22.776-0.531C122.485,233.804,122.089,232.518,121.237,232.622z"/>
        <path style="fill:#B15C36;" d="M120.484,243.471c-6.012,1.268-13.402,3.86-19.623,2.754c-0.502-0.088-0.72,0.693-0.234,0.863 c5.946,2.089,14.578-0.067,20.316-1.948C121.876,244.833,121.445,243.27,120.484,243.471z"/>
        <path style="fill:#B15C36;" d="M99.783,250.8c-7.576-0.075-15.14,1.38-22.685-0.317c-0.28-0.062-0.392,0.379-0.129,0.478 c6.866,2.627,15.709,3.067,22.812,1.181C100.446,251.964,100.62,250.81,99.783,250.8z"/>
        <path style="fill:#B15C36;" d="M101.797,257.536c-7.17,0.874-14.272,1.736-21.483,0.791c-0.524-0.069-0.603,0.68-0.11,0.799 c7.316,1.762,14.435,1.422,21.813,0.054C103.061,258.986,102.863,257.404,101.797,257.536z"/>
        <path style="fill:#B15C36;" d="M101.581,264.781c-7.21,1.2-14.263,3.045-21.636,1.799c-0.43-0.073-0.633,0.622-0.206,0.746 c6.945,2.019,15.451,1.132,22.15-1.415C102.516,265.676,102.239,264.672,101.581,264.781z"/>
        <path style="fill:#B15C36;" d="M62.969,220.767c-8.116,0.15-16.058,1.909-24.225,0.92c-0.514-0.062-0.579,0.648-0.105,0.773 c7.385,1.933,17.313,1.447,24.629-0.597C63.943,221.676,63.555,220.758,62.969,220.767z"/>
        <path style="fill:#B15C36;" d="M62.021,231.938c-6.247-0.836-12.475-0.728-18.724-1.278c-0.507-0.044-0.612,0.703-0.105,0.787 c6.037,1.002,12.549,1.577,18.664,1.674C62.606,233.132,62.802,232.04,62.021,231.938z"/>
        <path style="fill:#B15C36;" d="M63.467,241.485c-6.35,0.48-12.278,1.099-18.678,0.492c-0.664-0.062-0.799,0.911-0.139,1.027 c6.204,1.087,13.065,1.767,19.09-0.528C64.308,242.26,64.031,241.442,63.467,241.485z"/>
        <path style="fill:#B15C36;" d="M173.54,214.046c-8.673,0.298-17.153,0.606-25.836,0.181c-0.421-0.021-0.514,0.579-0.091,0.653 c8.367,1.458,17.703,1.996,26.061,0.181C174.325,214.92,174.198,214.023,173.54,214.046z"/>
        <path style="fill:#B15C36;" d="M178.602,222.844c-5.575,0.15-11.122,0.753-16.692,0.943c-5.147,0.176-10.433-0.405-15.568-0.803 c-0.456-0.036-0.543,0.606-0.098,0.701c10.411,2.156,22.061,2.149,32.513,0.332C179.522,223.883,179.35,222.823,178.602,222.844z "/>
        <path style="fill:#B15C36;" d="M175.405,230.531c-9.713,0.769-20.046,1.681-29.749,0.567c-0.438-0.051-0.505,0.567-0.091,0.665 c4.215,0.997,8.693,0.882,13.001,0.821c5.592-0.08,11.454-0.166,16.95-1.23C176.039,231.251,175.938,230.489,175.405,230.531z"/>
        <path style="fill:#B15C36;" d="M202.563,185.569c-3.823-0.041-7.619,0.392-11.451,0.313c-3.569-0.076-7.287-0.618-10.839-1.02 c-0.301-0.033-0.351,0.396-0.064,0.461c7.263,1.652,14.949,3.009,22.353,1.442C203.182,186.632,203.283,185.577,202.563,185.569z "/>
        <path style="fill:#B15C36;" d="M202.028,192.043c-7.593,0.149-15.142,0.98-22.623-0.826c-0.354-0.085-0.495,0.48-0.165,0.607 c7.053,2.689,15.573,2.477,22.915,1.148C202.762,192.863,202.626,192.031,202.028,192.043z"/>
        <path style="fill:#B15C36;" d="M203.962,197.963c-10.127,2.211-19.675,2.665-29.931,1.023c-0.335-0.056-0.375,0.423-0.069,0.505 c9.897,2.68,20.447,2.44,30.314-0.385C204.923,198.92,204.617,197.822,203.962,197.963z"/>
        <path style="fill:#B15C36;" d="M274.654,198.926c-5.37,0.54-10.565,1.024-15.975,0.624c-4.767-0.354-9.374-1.385-14.031-2.393 c-0.44-0.093-0.624,0.607-0.208,0.759c9.524,3.482,20.436,4.945,30.385,2.29C275.608,199.998,275.508,198.84,274.654,198.926z"/>
        <path style="fill:#B15C36;" d="M271.482,208.299c-8.21,0.775-16.223,0.606-24.34-1.038c-0.414-0.082-0.595,0.582-0.194,0.711 c7.672,2.492,16.818,3.768,24.712,1.678C272.491,209.432,272.383,208.213,271.482,208.299z"/>
        <path style="fill:#B15C36;" d="M275.816,216.596c-10.017,3.211-20.536,3.425-30.856,1.428c-0.72-0.139-0.822,0.921-0.153,1.101 c9.89,2.611,22.073,3.105,31.547-1.261C277.172,217.488,276.65,216.328,275.816,216.596z"/>
        <path style="fill:#B15C36;" d="M333.491,195.42c-7.009-0.123-14.215,0.242-21.165-0.843c-0.5-0.078-0.574,0.645-0.103,0.762 c6.787,1.656,14.301,1.786,21.263,1.458C334.266,196.761,334.273,195.433,333.491,195.42z"/>
        <path style="fill:#B15C36;" d="M328.798,203.821c-5.267,0.564-10.615,1.182-15.886,0.291c-0.583-0.099-0.676,0.76-0.122,0.893 c5.209,1.254,10.944,1.064,16.18,0.098C329.785,204.952,329.63,203.731,328.798,203.821z"/>
        <path style="fill:#B15C36;" d="M326.881,214.867c-6.056,1.191-11.614,2.641-17.815,1.291c-0.444-0.096-0.636,0.619-0.208,0.772 c6.02,2.135,12.498,1.613,18.356-0.839C327.868,215.816,327.6,214.726,326.881,214.867z"/>
        <path style="fill:#B15C36;" d="M299.508,224.76c-6.773,0.306-14.172,1.266-20.878,0.068c-0.411-0.073-0.6,0.593-0.194,0.712 c3.187,0.93,6.582,1.017,9.881,1.06c3.811,0.049,7.612,0.253,11.384-0.39C300.643,226.049,300.44,224.717,299.508,224.76z"/>
        <path style="fill:#B15C36;" d="M297.59,237.252c-7.545-0.274-14.982-0.386-22.393-2.021c-0.586-0.13-0.854,0.845-0.277,1.016 c7.447,2.214,14.939,2.759,22.666,2.431C298.396,238.645,298.398,237.281,297.59,237.252z"/>
        <path style="fill:#B15C36;" d="M297.012,249.727c-7.447,0.54-14.636,0.264-21.913-1.518c-0.567-0.139-0.815,0.798-0.268,0.981 c7.055,2.332,15.037,3.276,22.372,1.975C298.128,251,297.942,249.658,297.012,249.727z"/>
      </g>
      <g style="opacity:0.3;">
        <path style="fill:#C77821;" d="M201.421,187.384c1.006,0.114,2.008,1.491,0.956,2.313c-2.35,1.84-5.745,1.904-8.64,1.977 c-3.839,0.096-7.798-0.504-11.406-1.825c-0.258-0.094-0.437-0.247-0.583-0.422c-1.344-0.506-0.626-2.772,0.978-2.515 c3.73,0.596,7.466,0.905,11.243,0.859C196.436,187.742,198.98,187.107,201.421,187.384z"/>
        <path style="fill:#C77821;" d="M191.028,233.484c0.174,0.628-0.103,1.13-0.531,1.418c-0.352,0.968-1.731,1.334-2.41,0.27 c-2.926-4.572-3.316-11.43-3.211-16.7c0.055-2.768-0.11-8.764,3.077-10.005c0.462-0.182,0.978,0.05,1.32,0.348 c1.523,1.325,1.035,4.434,0.806,6.18C189.207,221.63,189.25,226.982,191.028,233.484z"/>
        <path style="fill:#C77821;" d="M183.211,198.604c-2.137-0.166-5.73-1.383-6.361-3.744c-0.837-0.939,0.39-2.7,1.779-2.025 c6.474,3.141,14.631,2.304,21.557,1.701c1.559-0.136,1.8,2.265,0.361,2.661C195.033,198.716,188.898,199.047,183.211,198.604z"/>
        <path style="fill:#C77821;" d="M197.607,207.064c0.784-0.689,1.929-0.403,2.264,0.599c0.856,2.566,0.005,4.979-0.72,7.473 c-0.504,3.578-0.722,7.238,0.038,10.794c0.555,2.577,1.638,4.899,2.262,7.436c0.303,1.237-0.93,2.008-1.989,1.53 c-4.272-1.922-5.53-8.408-5.618-12.571C193.751,217.764,193.897,210.318,197.607,207.064z"/>
        <path style="fill:#C77821;" d="M111.84,203.664c0.246,2.827,0.538,5.608,0.98,8.409c0.217,1.369,0.289,2.716-0.227,4.014 c-0.304,0.766-1.193,1.332-1.991,0.811c-3.923-2.568-4.466-9.442-4.604-14.021c-0.526-4.233-0.127-7.986,2.723-7.576 C111.739,195.737,111.653,201.521,111.84,203.664z"/>
        <path style="fill:#C77821;" d="M116.97,231.378c-5.372,1.174-10.823,0.482-16.156-0.69c-0.323-0.07-0.547-0.217-0.708-0.402 c-0.208-0.145-0.399-0.319-0.552-0.551c-0.492-0.748-0.072-1.623,0.466-2.19c0.057-0.06,0.129-0.097,0.191-0.147 c0.184-0.399,0.564-0.685,1.157-0.639c3.935,0.29,7.605-0.166,11.511-0.587c3.342-0.357,6.331-1.506,9.589-1.999 c0.93-0.14,1.621,0.361,1.717,1.307C124.568,229.254,119.901,230.736,116.97,231.378z"/>
        <path style="fill:#C77821;" d="M122.256,237.495c-2.869,7.899-16.273,6.831-21.454,2.309c-0.655-0.574-0.442-1.589,0.177-2.061 c0.119-0.723,0.722-1.363,1.628-1.083c3.722,1.145,7.528,1.046,11.346,0.537c1.795-0.239,5.948-2.373,7.681-1.232 C122.112,236.28,122.468,236.907,122.256,237.495z"/>
        <path style="fill:#C77821;" d="M96.131,205.259c-0.119-2.645-0.815-6.524,1.322-8.546c0.421-0.398,1.128-0.557,1.64-0.21 c2.288,1.547,1.611,5.913,1.865,8.27c0.395,3.673,2.577,7.721,1.946,11.38c-0.105,0.599-0.605,0.91-1.14,0.954 c-0.454,0.269-1.016,0.265-1.449-0.29C97.723,213.488,96.322,209.481,96.131,205.259z"/>
        <path style="fill:#C77821;" d="M89.924,179.355c3.658,1.151,7.676,0.888,11.478,0.88c2.458-0.005,4.951-0.931,7.366-0.477 c1.009,0.189,1.296,1.599,0.598,2.265c-3.053,2.913-9.022,3.206-12.97,2.88c-2.214-0.185-6.316-0.984-7.758-2.993 c-0.148-0.208-0.21-0.411-0.229-0.609C87.947,180.37,88.655,178.957,89.924,179.355z"/>
        <path style="fill:#C77821;" d="M92.203,242.227c-6.199,1.705-7.146-17.748-6.778-20.578c0.098-0.777,0.717-1.188,1.339-1.26 c0.44-0.658,1.31-0.867,2.042-0.234c1.116,0.962,1.384,2.233,1.568,3.658c0.421,3.22,0.827,6.834,1.836,9.927 C92.769,235.453,95.43,241.34,92.203,242.227z"/>
        <path style="fill:#C77821;" d="M89.078,210.557c-0.925,1.606-2.472,2.443-4.181,2.819c-5.178,2.227-12.929,0.625-16.579-2.837 c-0.88-0.837-0.275-1.951,0.643-2.209c0.292-0.249,0.679-0.381,1.162-0.252c5.934,1.618,11.76,1.188,17.784,0.44 C88.97,208.385,89.539,209.753,89.078,210.557z"/>
        <path style="fill:#C77821;" d="M86.934,201.874c-4.473,3.436-13.249,4.418-18.356,1.83c-1.176-0.599-3.096-2.389-1.227-3.548 c0.007-0.004,0.019-0.006,0.026-0.011c0.064-0.758,0.698-1.524,1.671-1.333c5.683,1.111,11.459,0.329,17.201,0.536 C87.699,199.399,87.964,201.08,86.934,201.874z"/>
        <path style="fill:#C77821;" d="M63.519,224.126c0.784,0,1.296,0.617,1.355,1.354c0.414,5.208-8.709,4.749-11.829,4.554 c-2.395-0.15-10.084-0.044-11.389-3.059c-1.09-0.722-0.373-2.777,1.152-2.411C49.696,226.211,56.579,224.113,63.519,224.126z"/>
        <path style="fill:#C77821;" d="M43.782,192.261c0.057-0.163,0.153-0.272,0.265-0.359c0.158-0.405,0.344-0.786,0.588-1.121 c0.423-0.587,1.009-1.091,1.721-1.218c0.538-0.329,1.131-0.344,1.592,0.441c0.755,1.291,0.411,3.451,0.567,4.852 c0.308,2.808,0.734,5.609,1.396,8.357c0.351,1.463,2.006,5.58,0.49,6.863c-1.341,1.136-2.501,0.498-3.562-0.718 C42.955,204.909,41.922,197.634,43.782,192.261z"/>
        <path style="fill:#C77821;" d="M37.526,209.346c-1.454-1.393-1.695-4.732-2.001-6.609c-0.562-3.441-0.703-6.806-0.067-10.246 c0.017-0.095,0.057-0.169,0.096-0.239c0.21-1.195,0.689-2.295,1.774-2.858c2.938-1.524,2.838,11.572,2.876,12.527 C40.244,202.909,41.131,212.798,37.526,209.346z"/>
        <path style="fill:#C77821;" d="M61.461,269.444c-0.096,1.128-1.427,1.856-2.312,0.96c-3.698-3.756-4.487-9.798-5.24-15.035 c-0.146-0.711-0.261-1.437-0.323-2.142c-0.019-0.109-0.036-0.223-0.055-0.332c-0.014-0.088,0.007-0.163,0.007-0.246 c-0.086-2.023,0.394-3.678,2.276-3.678c2.974,0,2.797,5.02,3.072,6.811C59.556,260.174,61.836,265.007,61.461,269.444z"/>
        <path style="fill:#C77821;" d="M61.631,239.081c-5.001,3.159-20.043,2.815-22.537-3.778c-0.215-0.573,0.089-1.142,0.557-1.459 c-0.127-0.907,0.526-1.898,1.597-1.475c6.259,2.468,12.721,1.084,19.156,1.988C63.111,234.735,64.33,237.378,61.631,239.081z"/>
        <path style="fill:#C77821;" d="M67.407,268.583c-3.526-4.081-4.942-11.247-4.808-16.786c-0.026-1.254,0.074-2.477,0.406-3.608 c0.457-1.549,1.846-3.575,3.746-2.461c2.008,1.176,1.205,4.247,1.212,6.091c0.012,3.421-0.194,7.224,0.739,10.548 c0.495,1.762,0.942,3.427,1.016,5.256C69.764,268.761,68.179,269.476,67.407,268.583z"/>
        <path style="fill:#C77821;" d="M77.376,221.288c0.134-0.904,0.911-1.12,1.587-0.886c0.425-0.123,0.889-0.051,1.21,0.363 c1.253,1.615,1.1,3.954,1.236,5.899c0.28,3.988,1.573,7.892,2.066,11.866c0.172,1.373-1.915,1.799-2.525,0.684 C77.935,233.689,76.453,227.559,77.376,221.288z"/>
        <path style="fill:#C77821;" d="M80.154,252.55c4.941,2.466,10.873,0.62,16.094,1.231c0.913,0.106,1.826,1.103,1.169,2.038 c-1.989,2.829-5.8,2.188-8.843,2.188c-3.294,0-7.863-0.059-9.983-3.065c-0.072-0.104-0.093-0.206-0.132-0.308 C77.498,253.702,78.736,251.844,80.154,252.55z"/>
        <path style="fill:#C77821;" d="M78.358,261.835c-0.371-0.961,0.743-1.967,1.666-1.665c0.27,0.087,0.526,0.206,0.794,0.306 c0.249-0.118,0.531-0.184,0.865-0.111c5.035,1.077,10.18,1.1,15.296,1.218c1.171,0.027,1.807,1.463,0.956,2.314 c-2.785,2.796-8.341,2.16-11.863,1.933C82.975,265.631,79.613,265.099,78.358,261.835z"/>
        <path style="fill:#C77821;" d="M264.606,249.331c0.115,1.375,0.256,3.654-1.755,3.654c-1.977,0-3.419-3.186-4.136-4.581 c-1.927-3.746-1.64-8.679-1.186-12.715c0.268-2.369,0.899-4.846,1.745-7.064c0.691-1.804,2.042-5.493,4.573-5.206 c0.779,0.088,1.26,0.679,1.53,1.372c0.387,0.982,0.696,2.634,0.514,3.678c-0.122,0.722-0.237,1.449-0.347,2.179 c-0.33,2.187-0.605,4.4-0.861,6.578c-0.294,2.544-0.39,5.104-0.328,7.663C264.393,246.374,264.479,247.855,264.606,249.331z"/>
        <path style="fill:#C77821;" d="M259.653,218.014c-4.332,0.005-14.043-0.08-14.86-5.962c-0.084-0.604,0.124-1.082,0.497-1.377 c0.084-0.761,0.693-1.449,1.626-1.132c4.769,1.612,9.623,2.755,14.712,2.596c2.936-0.092,6.032-1.195,8.893-0.712 c0.557,0.093,1.035,0.757,0.995,1.307C271.123,218.181,263.497,218.01,259.653,218.014z"/>
        <path style="fill:#C77821;" d="M252.935,247.663c0.086,1.32,0.184,2.639,0.258,3.96c0.062,1.108-1.58,1.895-2.314,0.957 c-3.187-4.069-3.173-9.639-2.348-14.531c0.586-3.458,0.629-10.046,3.569-12.504c0.935-0.783,2.207-0.258,2.312,0.959 c0.218,2.525-0.971,4.904-1.143,7.398c-0.026,0.398-0.057,0.797-0.091,1.195c-0.163,1.878-0.375,3.755-0.44,5.635 C252.66,243.045,252.782,245.358,252.935,247.663z"/>
        <path style="fill:#C77821;" d="M260.537,207.586c-4.564-0.223-10.349-0.586-13.51-4.429c-0.15-0.182-0.234-0.373-0.282-0.567 c-0.727-0.926-0.031-2.63,1.339-2.154c4.279,1.491,9.018,2.451,13.565,2.448c3.694-0.001,7.093-0.918,10.725-1.326 c1.09-0.122,1.597,1.222,1.169,2.04C271.221,208.043,264.781,207.796,260.537,207.586z"/>
        <path style="fill:#C77821;" d="M277.98,279.571c-3.624-2.757-4.358-8.401-3.978-12.661c0.277-3.107,0.418-8.679,3.49-10.457 c0.679-0.393,1.867-0.079,1.992,0.81c0.105,0.769,0.098,1.589,0.024,2.43c0.258,0.293,0.411,0.685,0.315,1.167 c-0.665,3.393-1.456,7.145-0.739,10.604c0.485,2.331,1.04,4.545,0.935,6.938C279.978,279.315,278.855,280.235,277.98,279.571z"/>
        <path style="fill:#C77821;" d="M290.033,272.673c0.026,1.384,0.559,3.453,0.189,4.803c-0.339,1.24-1.324,2.688-2.828,1.92 c-4.268-2.179-4.942-11.528-4.526-15.384c0.347-3.198,1.021-6.633,3.533-8.862c0.892-0.787,2.656-0.821,3.216,0.427 c0.798,1.79,0.997,3.742,0.918,5.763c0.103,0.233,0.165,0.489,0.115,0.789C290.086,265.633,289.959,269.128,290.033,272.673z"/>
        <path style="fill:#C77821;" d="M292.013,247.28c-3.564,0.782-9.013-0.195-13.316-1.882c-4.186-1.083-7.193-2.906-4.748-5.757 c0.301-0.351,0.887-0.48,1.32-0.348c0.588,0.182,1.159,0.403,1.728,0.631c3.5,0.874,7.021,0.891,10.665,0.925 c3.428,0.033,7.358-0.818,10.674-0.19c0.43,0.081,0.863,0.521,0.947,0.947C299.966,245.04,294.573,246.718,292.013,247.28z"/>
        <path style="fill:#C77821;" d="M292.156,235.392c-5.625-0.189-11.454-1.113-16.013-4.661c-0.387-0.304-0.466-0.775-0.354-1.214 c-0.447-0.932,0.265-2.328,1.525-1.928c4.217,1.335,8.92,0.845,13.299,1.082c3.431,0.184,7.119-0.411,10.471,0.062 c0.583,0.081,0.999,0.762,0.995,1.305C302.042,234.2,295.276,235.496,292.156,235.392z"/>
        <path style="fill:#C77821;" d="M289.233,214.256c0.354,1.694,0.497,4.542-1.628,5.128c-4.973,1.366-5.967-10.954-5.969-13.364 c-0.003-2.101,1.286-15.304,6.471-12.267c1.009,0.592,1.389,1.474,1.434,2.461c0.466,0.27,0.767,0.772,0.552,1.445 C288.305,203.244,288.044,208.541,289.233,214.256z"/>
        <path style="fill:#C77821;" d="M299.596,214.952c0.127,1.525,0.636,3.196-0.447,4.442c-0.411,0.473-1.124,0.477-1.642,0.213 c-3.12-1.605-3.677-6.311-3.803-9.416c-0.189-4.576-0.533-10.622,1.793-14.764c0.562-1.003,1.453-1.302,2.25-1.098 c0.433-0.319,0.935-0.399,1.518-0.163c2.529,1.027,1.616,6.158,0.755,9.857C299.529,207.671,299.278,211.156,299.596,214.952z"/>
        <path style="fill:#C77821;" d="M314.937,226.456c-1.585,6.29-0.801,12.859-1.25,19.258c-0.148,2.137,0.045,6.474-2.577,7.204 c-0.426,0.118-1.026,0.017-1.32-0.348c-2.381-2.985-2.194-8.604-1.917-12.197c0.38-4.954,1.965-9.333,3.541-14.009 c0.186-0.555,0.61-0.822,1.062-0.896C313.199,224.2,315.339,224.865,314.937,226.456z"/>
        <path style="fill:#C77821;" d="M334.347,207.499c-3.765,7.522-21.365,9.968-25.594,1.635c-0.086-0.13-0.172-0.268-0.23-0.414 c-0.017-0.041-0.046-0.073-0.062-0.114c-0.053-0.129-0.057-0.258-0.057-0.385c-0.005-0.037-0.024-0.067-0.026-0.105 c-0.079-1.285,0.765-2.008,1.757-2.204c0.112-0.037,0.237-0.049,0.366-0.047c0.545-0.037,1.105,0.074,1.561,0.339 c6.754,1.838,14.172,1.462,20.756-0.697C334.024,205.112,334.844,206.504,334.347,207.499z"/>
        <path style="fill:#C77821;" d="M311.258,197.99c0.093-0.738,0.719-1.455,1.666-1.259c6.589,1.372,13.127,1.33,19.797,0.926 c1.167-0.071,1.815,1.538,0.959,2.313c-5.25,4.751-17.146,4.466-22.403-0.13C310.684,199.319,310.801,198.503,311.258,197.99z"/>
        <path style="fill:#C77821;" d="M174.124,256.03c0.49,1.618-0.657,3.961-2.644,3.419c-7.433-2.022-8.879-13.581-8.293-19.817 c0.222-2.366,0.665-5.61,3.204-6.644c1.721-0.703,4.019-0.678,4.631,1.521c0.6,2.154,0.184,4.294-0.179,6.438 C170.373,246.488,172.556,250.856,174.124,256.03z"/>
        <path style="fill:#C77821;" d="M157.401,230.003c-3.45-0.179-8.114-0.222-10.825-2.73c-0.368-0.342-0.454-0.736-0.385-1.106 c-0.354-0.953,0.337-2.241,1.542-1.804c8.958,3.244,17.739,1.164,26.936,1.24c1.556,0.012,1.81,2.205,0.361,2.661 C169.476,230.012,163.191,230.306,157.401,230.003z"/>
        <path style="fill:#C77821;" d="M159.694,239.525c-0.724,5.761,0.557,10.569,1.355,16.21c0.165,1.155-1.305,2.52-2.264,1.318 c-2.319-2.909-3.017-6.985-3.232-10.637c-0.172-2.901-0.873-7.62,0.5-10.447c0.818-1.681,2.589-1.707,3.49-0.1 c0.502,0.887,0.296,2.236,0.117,3.232C159.687,239.232,159.715,239.363,159.694,239.525z"/>
        <path style="fill:#C77821;" d="M147.857,216.988c0.055,0.005,0.108,0.013,0.165,0.02c0.194-0.121,0.423-0.202,0.72-0.182 c8.398,0.558,16.739,1.003,25.121,0c0.732-0.087,1.36,0.683,1.355,1.354c-0.029,4.398-7.251,4.003-10.194,4.119 c-6.285,0.25-12.974,1.534-18.126-2.998C146.043,218.546,146.693,216.89,147.857,216.988z"/>
      </g>
      <g style="opacity:0.3;">
        <path style="fill:#C77821;" d="M16.442,171.957c4.848,19.303,17.313,67.721,24.825,85.996 c9.477,23.058,5.056,33.166,36.326,36.325c26.902,2.717,82.292,1.462,105.701,0.857c23.407,0.605,78.799,1.86,105.701-0.857 c31.27-3.159,26.85-13.267,36.326-36.325c7.511-18.275,20.966-74.193,25.814-93.497L16.442,171.957z M314.657,256.684 c-1.621,1.917-3.483,3.692-5.632,5.287c-10.985,8.159-25.827,10.637-39.465,11.714c-7.791,0.616-15.613,0.692-23.429,0.786 c-27.474,0.335-54.861,2.634-82.34,3.053c-12.941,0.196-25.884,0.164-38.822-0.093c-20.246-0.402-42.351,1.707-61.048-7.076 c-11.793-5.538-19.51-16.129-24.478-27.269c-7.313-16.399-22.3-58.077,11.893-56.205c9.632,0.526,19.142,0.652,28.793,0.728 c29.747,0.24,59.494,1.042,89.239,0.47c8.611-0.164,17.22-0.445,25.822-0.889c30.402-1.562,74.563-4.363,105.022-5.197 c9.089-0.25,20.526-1.976,29.047,1.635C346.769,191.046,321.06,249.12,314.657,256.684z"/>
      </g>
      <path style="opacity:0.1;fill:#FFFFFF;" d="M127.539,194.013c-13.144,0.1-26.288,0.135-39.429,0.037 c-9.594-0.074-22.016-1.933-31.103,1.268c-11.654,4.102-4.695,18.102-1.391,24.716c3.223,6.446,8.841,11.755,15.896,15.792 c18.65,10.677,43.802,13.424,66.265,14.437c18.451,0.832,36.941,0.449,55.397-0.446c24.411-1.186,49.659-0.807,73.501-5.8 c23.39-4.899,43.02-20.154,52.2-37.687c2.372-4.526,7.932-13.467,0.672-16.832c-7.896-3.655-98.163,3.476-132.972,3.882 C166.897,193.61,147.217,193.865,127.539,194.013z"/>
      <g style="opacity:0.5;">
        <path style="fill:#C77821;" d="M316.515,273.242c-21.186,15.451-92.376,12.625-104.97,12.912 c-25.305,0.576-50.627,0.679-75.937,0.586c-12.723-0.047-60.276-2.692-71.034-4.864c-6.964-1.405-13.373-4.077-18.368-8.81 c4.196,12.613,7.641,18.852,30.997,21.211c26.902,2.717,82.292,1.462,105.701,0.857c23.41,0.605,78.799,1.86,105.701-0.857 c25.473-2.575,27.263-9.759,32.173-24.799C319.443,270.827,318.055,272.12,316.515,273.242z"/>
        <path style="fill:#C77821;" d="M43.629,175.371c17.688-1.599,35.65-0.459,53.386-0.529c25.516-0.099,51.012-1.162,76.528-1.28 c25.635-0.118,51.292,0.414,76.922-0.153c25.136-0.557,50.594-2.966,75.727-1.648c5.2,0.271,15.415-0.146,18.829,5.063 c0.942,1.434,1.358,3.077,1.453,4.803c1.733-6.957,3.208-12.947,4.272-17.171l-334.694,7.501 c0.717,2.85,1.602,6.347,2.608,10.276c1.697-1.231,3.72-2.16,5.912-2.867C30.33,176.339,39.603,175.735,43.629,175.371z"/>
      </g>
    </g>
  </g>
</svg>