<svg xmlns="http://www.w3.org/2000/svg" xmlns:xlink="http://www.w3.org/1999/xlink" version="1.1" x="0px" y="0px" viewBox="0 0 100 90" fill='white' width='16' height='16' enable-background="new 0 0 100 100" xml:space="preserve"><g><polygon fill-rule="evenodd" clip-rule="evenodd" fill="white" points="0,0 0,30 7,30 7,7 30,7 30,0  "/><polygon fill-rule="evenodd" clip-rule="evenodd" fill="white" points="100,0 70,0 70,7 93,7 93,30 100,30  "/><polygon fill-rule="evenodd" clip-rule="evenodd" fill="white" points="100,100 100,70 93,70 93,93 70,93 70,100  "/><polygon fill-rule="evenodd" clip-rule="evenodd" fill="white" points="0,100 30,100 30,93 7,93 7,70 0,70  "/></g><g display="none"><polygon display="inline" fill-rule="evenodd" clip-rule="evenodd" fill="white" points="30,30 30,0 23,0 23,23 0,23 0,30  "/><polygon display="inline" fill-rule="evenodd" clip-rule="evenodd" fill="white" points="70,30 100,30 100,23 77,23 77,0 70,0     "/><polygon display="inline" fill-rule="evenodd" clip-rule="evenodd" fill="white" points="70,70 70,100 77,100 77,77 100,77    100,70  "/><polygon display="inline" fill-rule="evenodd" clip-rule="evenodd" fill="white" points="30,70 0,70 0,77 23,77 23,100 30,100     "/></g><g display="none"><polygon display="inline" fill-rule="evenodd" clip-rule="evenodd" fill="white" points="1.939,16.95 97.529,16.95    49.998,54.354  "/><polygon display="inline" fill-rule="evenodd" clip-rule="evenodd" fill="white" points="100,23.447 100,83.042 0,83.042    0,23.447 49.998,62.544  "/><path display="inline" fill-rule="evenodd" clip-rule="evenodd" fill="white" d="M-102.089,47.16   c-0.003,4.584-0.032,9.167,0.005,13.75c0.028,3.6-1.686,5.402-5.303,5.4c-9.381-0.004-18.758,0.021-28.138-0.014   c-1.586-0.008-3.741,0.365-3.727-2.123c0.017-3.463-2.379-7.088-0.057-10.311c1.746-2.426,3.721,0.02,5.499,0.715   c3.465,1.354,6.572,1.07,9.014-1.932c2.07-2.542,2.383-5.397,0.325-8.042c-2.463-3.167-5.552-3.857-9.419-2.223   c-5.634,2.385-6.755,1.475-6.119-4.303c0.936-8.504,0.936-8.504,9.451-7.481c6.118,0.736,6.819-0.226,4.467-6.276   c-1.416-3.633-1.304-6.982,1.915-9.601c2.788-2.272,5.866-2.184,8.62-0.044c3.245,2.516,3.412,5.916,2.077,9.571   c-2.384,6.519-1.826,7.43,4.924,6.076c5.108-1.024,7.3-0.079,6.565,5.596C-102.469,39.607-102.081,43.41-102.089,47.16z"/><path display="inline" fill-rule="evenodd" clip-rule="evenodd" fill="white" d="M-179.581,14.719   c-1.547,1.95,0.019,3.01,1.136,4.136l2.487,2.371c5.73,3.815,5.48,4.855-0.814,7.778c-3.529,1.641-5.816,4.163-5.3,8.235   c0.435,3.461,2.549,5.701,6.126,6.064l0,0c4.127,0.424,6.452-1.958,8.019-5.528c2.616-5.94,3.791-6.124,7.597-1.278   c5.298,6.743,5.298,6.743,11.973,1.394c4.535-3.636,4.385-5.073-1.284-7.37c-3.893-1.578-5.587-4.251-5.089-8.232   c0.414-3.326,2.656-5.122,5.916-5.456c3.849-0.396,6.248,1.601,7.738,5.007c0.766,1.749,0.434,4.875,3.383,4.395   c3.921-0.637,4.791-4.895,7.251-7.33c1.77-1.751-0.018-3.01-1.135-4.137l-2.487-2.371c-5.732-3.816-5.48-4.854,0.814-7.777   c3.527-1.641,5.939-4.07,5.423-8.144l0,0c-0.436-3.461-2.55-5.7-6.126-6.064c-4.128-0.424-6.575,1.866-8.144,5.435   c-2.615,5.943-3.791,6.125-7.595,1.279c-5.3-6.744-5.3-6.744-11.975-1.393C-161.666-4.268-169.972,2.606-179.581,14.719z"/><polygon display="inline" fill-rule="evenodd" clip-rule="evenodd" fill="white" points="-317,-7 -317,23 -310,23 -310,0 -287,0    -287,-7  "/></g></svg>