<?xml version="1.0" encoding="UTF-8"?>
<svg width="800px" height="800px" viewBox="0 0 100 100" xmlns="http://www.w3.org/2000/svg" version="1.1">

  <path style="fill:white" d="m 30,56 0,6 c 0,0 -4,0 -5,0 -3,0 -4,4 -4,4 1,0 33,0 34,0 0,0 -1,-4 -3,-4 -2,0 -5,0 -5,0 l 0,-6"/>
  <path style="fill:white" d="M 4,51 C 4,41 4,19 4,11 4,9 4,4.6 8,4.6 c 8,0 57,0 61,0 4,0 4,4.4 4,9.4 0,7 0,33 0,37 0,1 0,4 -6,4 -4,0 -55,0 -59,0 -4,0 -4,-4 -4,-4 z"/>
  <path style="fill:none" d="M 8,9 69,9 69,51 8,51 z"/>

  <path style="fill:white" d="m 53,88 0,6 c 0,0 -4,0 -5,0 -3,0 -4,4 -4,4 1,0 33,0 34,0 0,0 -1,-4 -3,-4 -2,0 -5,0 -5,0 l 0,-6"/>
  <path style="fill:white" d="m 27,83 c 0,-10 0,-32 0,-40 0,-2 0,-6 4,-6 8,0 57,0 61,0 4,0 4,4 4,9 0,7 0,33 0,37 0,1 0,4 -6,4 -4,0 -55,0 -59,0 -4,0 -4,-4 -4,-4 z"/>
  <path style="fill:none" d="m 31,41 61,0 0,42 -61,0 z"/>

</svg>