<svg xmlns="http://www.w3.org/2000/svg" xmlns:xlink="http://www.w3.org/1999/xlink" version="1.1" x="0px" y="0px" viewBox="0 0 60 50" enable-background="new 0 0 58 50" xml:space="preserve" width="18" height="16" fill="white"><g><path fill="white" d="M50.47,41.5l6.48-3.24l-17.64-6.5l6.5,17.64l3.24-6.48l6.8,6.8c0.2,0.2,0.45,0.29,0.71,0.29   s0.51-0.1,0.71-0.29c0.39-0.39,0.39-1.02,0-1.41L50.47,41.5z M42.69,35.13l9.23,3.4l-3.89,1.94l-1.94,3.89L42.69,35.13z"/><path fill="white" d="M25.54,15.16c-0.31-0.2-0.7-0.21-1.02-0.03C24.2,15.3,24,15.63,24,16v14c0,0.37,0.2,0.7,0.52,0.88   C24.67,30.96,24.83,31,25,31c0.19,0,0.37-0.05,0.54-0.16l11-7C36.83,23.66,37,23.34,37,23s-0.17-0.66-0.46-0.84L25.54,15.16z    M26,28.18V17.82L34.14,23L26,28.18z"/><path fill="white" d="M57,0H47H11H1C0.45,0,0,0.45,0,1v11v11v11v11c0,0.55,0.45,1,1,1h10h27c0.55,0,1-0.45,1-1s-0.45-1-1-1H12V34   V23V12V2h34v10v11c0,0.55,0.45,1,1,1h9v10c0,0.55,0.45,1,1,1s1-0.45,1-1V23V12V1C58,0.45,57.55,0,57,0z M2,24h8v9H2V24z M10,22H2   v-9h8V22z M2,44v-9h8v9H2z M10,11H2V2h8V11z M56,2v9h-8V2H56z M48,22v-9h8v9H48z"/></g></svg>