<svg xmlns="http://www.w3.org/2000/svg" width="20" height="16" fill="white"><path fill="white" fill-rule="evenodd" d="M0 2.75A2.75 2.75 0 0 1 2.75 0h14.5A2.75 2.75 0 0 1 20 2.75v10.5A2.75 2.75 0 0 1 17.25 16H2.75A2.75 2.75 0 0 1 0 13.25V2.75ZM2.75 1.5c-.69 0-1.25.56-1.25 1.25v10.5c0 .69.56 1.25 1.25 1.25h14.5c.69 0 1.25-.56 1.25-1.25V2.75c0-.69-.56-1.25-1.25-1.25H2.75Z" clip-rule="evenodd"></path><path fill="white" fill-rule="evenodd" d="M9.47 4.22a.75.75 0 0 1 1.06 0l2.25 2.25a.75.75 0 0 1-1.06 1.06l-.97-.97v4.69a.75.75 0 0 1-1.5 0V6.56l-.97.97a.75.75 0 0 1-1.06-1.06l2.25-2.25Z" clip-rule="evenodd"></path></svg>