<?xml version="1.0" standalone="no"?>
<!DOCTYPE svg PUBLIC "-//W3C//DTD SVG 20010904//EN"
 "http://www.w3.org/TR/2001/REC-SVG-20010904/DTD/svg10.dtd">
<svg version="1.0" xmlns="http://www.w3.org/2000/svg"
 width="1202.000000pt" height="1280.000000pt" viewBox="0 0 1202.000000 1280.000000"
 preserveAspectRatio="xMidYMid meet">
<metadata>
Created by potrace 1.15, written by Peter Selinger 2001-2017
</metadata>
<g transform="translate(0.000000,1280.000000) scale(0.100000,-0.100000)"
fill="white" fill-opacity='0.7' stroke="none">
<path d="M6084 12182 c-89 -31 -218 -105 -331 -188 -415 -307 -1431 -1324
-2952 -2957 -101 -108 -186 -197 -189 -197 -3 0 5 12 19 27 25 27 24 27 -50
-3 -37 -15 -41 -19 -25 -25 10 -4 -432 -8 -984 -8 l-1002 -1 2 -2502 3 -2503
1025 -5 1026 -5 219 -240 c1463 -1602 2520 -2657 2945 -2941 119 -79 264 -148
355 -170 197 -46 341 47 389 250 4 15 7 2531 7 5590 0 5500 -1 5562 -20 5638
-24 92 -41 126 -88 179 -53 59 -104 82 -193 86 -63 3 -88 -1 -156 -25z"/>
<path d="M9905 11513 c-22 -20 -75 -70 -117 -111 l-78 -74 69 -77 c38 -42 111
-133 164 -202 611 -811 1054 -1892 1256 -3069 180 -1049 180 -2227 0 -3260
-211 -1212 -681 -2298 -1325 -3065 -51 -60 -106 -123 -123 -139 -17 -17 -31
-35 -31 -41 0 -14 214 -225 228 -225 12 0 156 151 233 245 905 1108 1443 2759
1487 4565 39 1582 -248 2995 -854 4210 -206 412 -419 753 -660 1056 -77 98
-192 224 -203 224 -3 0 -24 -17 -46 -37z"/>
<path d="M8527 10247 l-118 -112 66 -75 c318 -361 611 -873 818 -1430 510
-1374 515 -3147 12 -4486 -216 -577 -496 -1046 -863 -1446 l-25 -27 109 -115
c59 -64 113 -116 120 -116 21 0 206 212 323 367 535 716 879 1649 1001 2714
58 513 60 1123 4 1644 -118 1115 -501 2150 -1075 2905 -89 118 -237 290 -248
290 -3 0 -59 -51 -124 -113z"/>
<path d="M7139 9167 c-14 -17 -60 -75 -101 -128 l-77 -96 91 -79 c170 -147
400 -423 547 -659 86 -137 240 -454 295 -607 86 -242 156 -538 186 -790 29
-251 27 -660 -5 -910 -105 -813 -502 -1552 -1084 -2016 l-25 -19 79 -108 c43
-59 88 -119 100 -133 l23 -26 93 76 c109 89 276 256 378 378 399 475 665 1082
760 1731 61 412 53 896 -20 1309 -126 712 -461 1374 -947 1872 -106 108 -249
238 -263 238 -2 0 -16 -15 -30 -33z"/>
</g>
</svg>
