<svg xmlns="http://www.w3.org/2000/svg" width="16" height="16" fill="white" viewBox="0 0 48 48" id="frames-per-second"><path fill-rule="evenodd" d="M12,11h-2c-.8,0-1.56,.32-2.12,.88-.56,.56-.88,1.33-.88,2.12v2c-.8,0-1.56,.32-2.12,.88-.56,.56-.88,1.33-.88,2.12v20c0,.8,.32,1.56,.88,2.12,.56,.56,1.33,.88,2.12,.88H41c.8,0,1.56-.32,2.12-.88,.56-.56,.88-1.33,.88-2.12V19c0-.8-.32-1.56-.88-2.12-.56-.56-1.33-.88-2.12-.88v-2c0-.8-.32-1.56-.88-2.12-.56-.56-1.33-.88-2.12-.88h-2v-2c0-.8-.32-1.56-.88-2.12-.56-.56-1.33-.88-2.12-.88H15c-.8,0-1.56,.32-2.12,.88-.56,.56-.88,1.33-.88,2.12v2h0Zm-4,29h-1c-.27,0-.52-.11-.71-.29-.19-.19-.29-.44-.29-.71v-3h2v4h0Zm2-22v22h28V18H10Zm32,18v3c0,.27-.11,.52-.29,.71-.19,.19-.44,.29-.71,.29h-1v-4h2Zm-25-1h14c.55,0,1-.45,1-1s-.45-1-1-1h-14c-.55,0-1,.45-1,1s.45,1,1,1h0Zm23-5v4h2v-4h-2Zm-34,0v4h2v-4h-2Zm17-2h.5c1.38,0,2.5-1.12,2.5-2.5s-1.12-2.5-2.5-2.5h-1.5c-.55,0-1,.45-1,1v6c0,.55,.45,1,1,1s1-.45,1-1v-2h0Zm4-2.5c0,1.38,1.12,2.5,2.5,2.5h.04c.26,0,.46,.21,.46,.46v.04c0,.28-.22,.5-.5,.5h-1.5c-.55,0-1,.45-1,1s.45,1,1,1h1.5c1.38,0,2.5-1.12,2.5-2.5v-.04c0-1.36-1.1-2.46-2.46-2.46h-.04c-.28,0-.5-.22-.5-.5s.22-.5,.5-.5h1.5c.55,0,1-.45,1-1s-.45-1-1-1h-1.5c-1.38,0-2.5,1.12-2.5,2.5h0Zm-9,2.5h1c.55,0,1-.45,1-1s-.45-1-1-1h-1v-1h1c.55,0,1-.45,1-1s-.45-1-1-1h-2c-.55,0-1,.45-1,1v6c0,.55,.45,1,1,1s1-.45,1-1v-2h0Zm22-4v4h2v-4h-2Zm-34,0v4h2v-4h-2Zm18,1.5c0-.28-.22-.5-.5-.5h-.5v1h.5c.28,0,.5-.22,.5-.5h0Zm16-7.5h1c.27,0,.52,.11,.71,.29,.19,.19,.29,.44,.29,.71v3h-2v-4h0ZM6,22v-3c0-.27,.11-.52,.29-.71,.19-.19,.44-.29,.71-.29h1v4h-2ZM38,13H10c-.27,0-.52,.11-.71,.29-.19,.19-.29,.44-.29,.71v2h30v-2c0-.27-.11-.52-.29-.71-.19-.19-.44-.29-.71-.29h0Zm-4-2v-2c0-.27-.11-.52-.29-.71-.19-.19-.44-.29-.71-.29H15c-.27,0-.52,.11-.71,.29-.19,.19-.29,.44-.29,.71v2h20Z"></path></svg>