<svg xmlns="http://www.w3.org/2000/svg" xmlns:xlink="http://www.w3.org/1999/xlink" version="1.1" x="0px" y="0px" viewBox="0 0 100 100" enable-background="new 0 0 100 100" xml:space="preserve" width="18" height="16" fill="white"><path d="M27.5,60.5h45c4.6,0,9.1-3.8,9.1-8.4V26.8c0-4.6-4.5-9.1-9.1-9.1h-9.2c0-3.7-3.8-5.6-8.4-5.6h-9.9c-4.6,0-8.4,1.9-8.4,5.6  h-9.2c-4.6,0-9.1,4.4-9.1,9.1v25.3C18.3,56.7,22.8,60.5,27.5,60.5z M50,25.4c7.8,0,14.1,6.3,14.1,14.1c0,7.8-6.3,14.1-14.1,14.1  c-7.8,0-14.1-6.3-14.1-14.1C35.9,31.7,42.2,25.4,50,25.4z"/><circle cx="50" cy="39.4" r="8.4"/><path d="M96.1,57.9c-2.2-1.7-4.3-2.5-5.7-3.1C89,54.2,88.2,54,88.2,54c0,0,0.7,0.4,2,1.2c1.2,0.8,3,2.1,4.7,4  c0.8,0.9,1.5,2.1,1.9,3.3c0.3,1.2,0.2,2.5-0.5,3.6c-1.3,2.3-4.4,4-7.7,5.3c-6.7,2.5-14.7,3.5-21.6,3.9c-2.7,0.2-5.3,0.2-7.6,0.2  v10.7c2.7-0.3,5.7-0.8,8.9-1.4c7.4-1.6,15.7-4,22.9-8.3c1.8-1.1,3.5-2.3,5-3.7c1.5-1.4,2.8-3.1,3.5-5.2c0.7-2,0.5-4.3-0.4-5.9  C98.4,59.8,97.2,58.7,96.1,57.9z"/><path d="M9,76.4c7.2,4.3,15.5,6.7,22.9,8.3c2.4,0.5,4.8,0.9,7,1.2v6.4l13-11.2l-13-11.2v5.5c-1.8,0-3.7-0.1-5.7-0.2  c-6.9-0.4-14.9-1.3-21.6-3.8c-3.3-1.2-6.4-3-7.8-5.2c-0.7-1.1-0.9-2.3-0.5-3.6c0.3-1.2,1-2.4,1.8-3.3c1.6-1.9,3.4-3.1,4.7-4  c1.2-0.8,2-1.2,2-1.2c0,0-0.8,0.2-2.2,0.8c-1.4,0.6-3.4,1.4-5.7,3.1c-1.1,0.9-2.3,2-3.1,3.6c-0.8,1.6-1,3.9-0.3,5.9  c0.7,2,2.1,3.7,3.6,5.2C5.5,74.1,7.2,75.3,9,76.4z"/></svg>